<svg width="940" height="1000" xmlns="http://www.w3.org/2000/svg" xmlns:xlink="http://www.w3.org/1999/xlink" xml:space="preserve" overflow="hidden"><g transform="translate(-2390 -973)"><path d="M2785.32 976.5 3174.35 976.5C3258.38 976.5 3326.5 1044.7 3326.5 1128.84L3326.5 1738.16C3326.5 1822.3 3258.38 1890.5 3174.35 1890.5L2545.65 1890.5C2461.62 1890.5 2393.5 1822.3 2393.5 1738.16L2393.5 1387.42ZM2545.65 976.5 2687.9 976.5 2393.5 1285.25 2393.5 1128.84C2393.5 1044.7 2461.62 976.5 2545.65 976.5Z" stroke="#53AB80" stroke-width="6.875" stroke-miterlimit="8" fill="#53AB80" fill-rule="evenodd"/><text fill="#FFFFFF" font-family="Yu Gothic,Yu Gothic_MSFontService,sans-serif" font-weight="700" font-size="128" transform="matrix(1 0 0 1 2602.75 1859)">アクセス</text><g><g><g><path d="M369.042 163.898C356.017 163.898 345.162 153.044 345.705 139.476 345.705 126.451 356.559 115.597 369.584 115.597 382.609 115.597 393.463 126.451 393.463 139.476 393.463 145.988 390.75 151.958 386.408 156.3 381.524 161.184 375.554 163.898 369.042 163.898ZM345.705 88.4614C333.766 92.8031 324.539 102.029 318.57 112.883 310.972 127.536 309.886 144.36 315.856 159.556L341.906 215.998 359.273 251.817C360.901 255.616 364.7 257.786 369.042 257.786 373.383 257.786 377.182 255.616 378.81 251.817L396.177 215.998 422.227 160.099C424.94 153.586 426.026 146.531 426.026 139.476 426.026 101.486 386.951 72.7229 345.705 88.4614Z" fill="#FFFFFF" transform="matrix(1 0 0 1.00192 2599 1161)"/><path d="M249.646 395.092 162.812 351.675 162.812 174.752 249.646 218.169 249.646 395.092ZM141.104 351.675 75.9791 384.237 75.9791 207.314 141.104 174.752 141.104 351.675ZM441.764 169.325 441.764 169.325 428.197 198.631 445.021 207.314 445.021 384.237 379.896 351.675 379.896 279.495 358.187 279.495 358.187 351.675 271.354 395.092 271.354 218.169 309.886 198.631 296.319 169.325 260.5 187.234 151.958 132.963 43.4166 187.234 43.4166 436.88 151.958 382.609 260.5 436.88 369.042 382.609 477.583 436.88 477.583 187.234 441.764 169.325Z" fill="#FFFFFF" transform="matrix(1 0 0 1.00192 2599 1161)"/></g></g></g></g></svg>