<svg width="940" height="999" xmlns="http://www.w3.org/2000/svg" xmlns:xlink="http://www.w3.org/1999/xlink" xml:space="preserve" overflow="hidden"><g transform="translate(-1175 3)"><path d="M1571.08 0.499836 1959.35 0.499836C2043.38 0.499836 2111.5 68.6285 2111.5 152.67L2111.5 761.33C2111.5 845.371 2043.38 913.5 1959.35 913.5L1330.65 913.5C1246.62 913.5 1178.5 845.371 1178.5 761.33L1178.5 411.767ZM1330.65 0.499836 1473.66 0.499836 1178.5 309.711 1178.5 152.67C1178.5 68.6285 1246.62 0.499836 1330.65 0.499836Z" stroke="#53AB80" stroke-width="6.875" stroke-miterlimit="8" fill="#53AB80" fill-rule="evenodd"/><text fill="#FFFFFF" font-family="Yu Gothic,Yu Gothic_MSFontService,sans-serif" font-weight="700" font-size="128" transform="matrix(1 0 0 1 1387.68 883)">予約状況</text><g><g><g><path d="M418 176 418 220 374 220 374 176 418 176ZM110 374 154 374 154 418 110 418 110 374ZM220 176 220 220 176 220 176 176 220 176ZM286 176 286 220 242 220 242 176 286 176ZM352 286 308 286 308 242 352 242 352 286ZM374 286 374 242 418 242 418 286 374 286ZM374 352 374 308 418 308 418 352 374 352ZM242 374 286 374 286 418 242 418 242 374ZM220 374 220 418 176 418 176 374 220 374ZM176 308 220 308 220 352 176 352 176 308ZM154 308 154 352 110 352 110 308 154 308ZM154 242 154 286 110 286 110 242 154 242ZM220 286 176 286 176 242 220 242 220 286ZM242 286 242 242 286 242 286 286 242 286ZM286 352 242 352 242 308 286 308 286 352ZM308 352 308 308 352 308 352 352 308 352ZM352 176 352 220 308 220 308 176 352 176ZM77 143 77 451 451 451 451 143 77 143Z" fill="#FFFFFF" transform="matrix(1.00189 0 0 1 1380 193)"/><path d="M77 77 451 77 451 121 77 121Z" fill="#FFFFFF" transform="matrix(1.00189 0 0 1 1380 193)"/></g></g></g></g></svg>