<svg width="940" height="999" xmlns="http://www.w3.org/2000/svg" xmlns:xlink="http://www.w3.org/1999/xlink" xml:space="preserve" overflow="hidden"><g transform="translate(-61 -973)"><path d="M457.081 976.5 845.352 976.5C929.381 976.5 997.5 1044.7 997.5 1128.84L997.5 1738.16C997.5 1822.3 929.381 1890.5 845.352 1890.5L216.649 1890.5C132.619 1890.5 64.5001 1822.3 64.5001 1738.16L64.5001 1388.22ZM216.649 976.5 359.662 976.5 64.5001 1286.05 64.5001 1128.84C64.5001 1044.7 132.619 976.5 216.649 976.5Z" stroke="#53AB80" stroke-width="6.875" stroke-miterlimit="8" fill="#53AB80" fill-rule="evenodd"/><text fill="#FFFFFF" font-family="Yu Gothic,Yu Gothic_MSFontService,sans-serif" font-weight="700" font-size="128" transform="matrix(1 0 0 1 273.651 1859)">営業時間</text><g><g><g><path d="M265.5 442.5C168.15 442.5 88.5 362.85 88.5 265.5 88.5 168.15 168.15 88.5 265.5 88.5 362.85 88.5 442.5 168.15 442.5 265.5 442.5 362.85 362.85 442.5 265.5 442.5ZM265.5 55.3125C149.344 55.3125 55.3125 149.344 55.3125 265.5 55.3125 381.656 149.344 475.688 265.5 475.688 381.656 475.688 475.688 381.656 475.688 265.5 475.688 149.344 381.656 55.3125 265.5 55.3125Z" fill="#FFFFFF" transform="matrix(1 0 0 1.00188 264 1161)"/><path d="M276.563 154.875 254.438 154.875 254.438 265.5C254.438 268.819 255.544 271.584 257.756 273.244L335.747 351.234 351.234 335.747 276.563 261.075 276.563 154.875Z" fill="#FFFFFF" transform="matrix(1 0 0 1.00188 264 1161)"/><path d="M276.563 121.688C276.563 127.797 271.61 132.75 265.5 132.75 259.39 132.75 254.438 127.797 254.438 121.688 254.438 115.578 259.39 110.625 265.5 110.625 271.61 110.625 276.563 115.578 276.563 121.688Z" fill="#FFFFFF" transform="matrix(1 0 0 1.00188 264 1161)"/><path d="M276.563 409.313C276.563 415.422 271.61 420.375 265.5 420.375 259.39 420.375 254.438 415.422 254.438 409.313 254.438 403.203 259.39 398.25 265.5 398.25 271.61 398.25 276.563 403.203 276.563 409.313Z" fill="#FFFFFF" transform="matrix(1 0 0 1.00188 264 1161)"/><path d="M132.75 265.5C132.75 271.61 127.797 276.563 121.688 276.563 115.578 276.563 110.625 271.61 110.625 265.5 110.625 259.39 115.578 254.438 121.688 254.438 127.797 254.438 132.75 259.39 132.75 265.5Z" fill="#FFFFFF" transform="matrix(1 0 0 1.00188 264 1161)"/><path d="M420.375 265.5C420.375 271.61 415.422 276.563 409.313 276.563 403.203 276.563 398.25 271.61 398.25 265.5 398.25 259.39 403.203 254.438 409.313 254.438 415.422 254.438 420.375 259.39 420.375 265.5Z" fill="#FFFFFF" transform="matrix(1 0 0 1.00188 264 1161)"/></g></g></g></g></svg>