<svg width="1436" height="1436" xmlns="http://www.w3.org/2000/svg" xmlns:xlink="http://www.w3.org/1999/xlink" xml:space="preserve" overflow="hidden"><g transform="translate(51 -311)"><path d="M-47.4999 1029C-47.4999 634.393 272.393 314.5 667 314.5 1061.61 314.5 1381.5 634.393 1381.5 1029 1381.5 1423.61 1061.61 1743.5 667 1743.5 272.393 1743.5-47.4999 1423.61-47.4999 1029Z" stroke="#FFFFFF" stroke-width="6.875" stroke-miterlimit="8" fill="#53AB80" fill-rule="evenodd"/><path d="M624.846 1568.66C646.999 1568.66 664.956 1586.64 664.956 1608.83 664.956 1631.01 646.999 1649 624.846 1649 602.694 1649 584.737 1631.01 584.737 1608.83 584.737 1586.64 602.694 1568.66 624.846 1568.66ZM598.537 1448.93C628.073 1448.93 652.017 1472.91 652.017 1502.49 652.017 1532.07 628.073 1556.05 598.537 1556.05 569.001 1556.05 545.057 1532.07 545.057 1502.49 545.057 1472.91 569.001 1448.93 598.537 1448.93ZM582.85 1302.42C619.77 1302.42 649.7 1332.4 649.7 1369.38 649.7 1406.35 619.77 1436.33 582.85 1436.33 545.93 1436.33 516 1406.35 516 1369.38 516 1332.4 545.93 1302.42 582.85 1302.42ZM615.933 1130.16C660.237 1130.16 696.153 1166.13 696.153 1210.51 696.153 1254.88 660.237 1290.85 615.933 1290.85 571.629 1290.85 535.713 1254.88 535.713 1210.51 535.713 1166.13 571.629 1130.16 615.933 1130.16ZM664.136 935.572C715.824 935.572 757.725 977.538 757.725 1029.31 757.725 1081.07 715.824 1123.04 664.136 1123.04 612.447 1123.04 570.546 1081.07 570.546 1029.31 570.546 977.538 612.447 935.572 664.136 935.572ZM724.46 769.974C768.764 769.974 804.68 805.945 804.68 850.318 804.68 894.69 768.764 930.661 724.46 930.661 680.156 930.661 644.24 894.69 644.24 850.318 644.24 805.945 680.156 769.974 724.46 769.974ZM749.15 623.591C786.07 623.591 816 653.567 816 690.544 816 727.521 786.07 757.497 749.15 757.497 712.23 757.497 682.3 727.521 682.3 690.544 682.3 653.567 712.23 623.591 749.15 623.591ZM735.78 498.726C765.316 498.726 789.26 522.707 789.26 552.288 789.26 581.87 765.316 605.851 735.78 605.851 706.244 605.851 682.3 581.87 682.3 552.288 682.3 522.707 706.244 498.726 735.78 498.726ZM696.658 409C718.81 409 736.768 426.985 736.768 449.172 736.768 471.358 718.81 489.343 696.658 489.343 674.506 489.343 656.548 471.358 656.548 449.172 656.548 426.985 674.506 409 696.658 409Z" stroke="#FFFFFF" stroke-width="13.75" stroke-miterlimit="8" fill="#D8C700" fill-rule="evenodd"/><path d="M1033.96 512.603C1006.47 502.293 976.474 513.882 967.293 538.356 963.955 547.256 963.532 555.98 966.026 564.53L1017.1 800.688C1031.68 803.618 1045.42 808.773 1059.58 816.622 1102.46 842.862 1120.34 893.983 1104.48 936.256L1030.62 1133.16 980.646 1114.42 1055.76 914.173C1064.94 889.699 1049.97 861.239 1022.48 850.929 994.995 840.619 964.996 852.207 955.815 876.682 955.815 876.682 856.496 1141.45 855.662 1143.67 848.568 1162.58 848.137 1182.73 852.29 1202.05L904.099 1580.61 1137.43 1490.48C1083.35 1387.71 1087.17 1282.54 1125.14 1181.31L1203.18 973.279C1206.93 963.267 1206.52 952.961 1203.2 942.831L1066.43 543.818C1060.19 530.057 1048.95 518.227 1033.96 512.603Z" stroke="#FFFFFF" stroke-width="26.4974" stroke-miterlimit="8" fill="#FFFFFF" fill-rule="evenodd"/><path d="M343.961 1584.54C372.207 1592.53 401.14 1578.49 408.256 1553.34 410.843 1544.19 410.54 1535.46 407.345 1527.15L336.828 1296.05C322.058 1294.34 307.935 1290.35 293.174 1283.7 248.256 1261.11 226.195 1211.65 238.486 1168.21L295.736 965.848 347.093 980.378 288.873 1186.17C281.757 1211.32 299.046 1238.44 327.292 1246.43 355.539 1254.42 384.472 1240.38 391.587 1215.23 391.587 1215.23 468.567 943.126 469.214 940.839 474.713 921.404 473.468 901.295 467.725 882.383L384.645 509.433 159.612 618.64C222.044 716.564 226.973 821.681 197.539 925.72L137.055 1139.51C134.144 1149.8 135.408 1160.04 139.564 1169.86L309.01 1556.13C316.371 1569.33 328.553 1580.18 343.961 1584.54Z" stroke="#FFFFFF" stroke-width="26.4974" stroke-miterlimit="8" fill="#FFFFFF" fill-rule="evenodd"/></g></svg>