<svg width="941" height="999" xmlns="http://www.w3.org/2000/svg" xmlns:xlink="http://www.w3.org/1999/xlink" xml:space="preserve" overflow="hidden"><g transform="translate(-3421 -973)"><path d="M3817.5 976.5 4206.19 976.5C4290.31 976.5 4358.5 1044.7 4358.5 1128.84L4358.5 1738.16C4358.5 1822.3 4290.31 1890.5 4206.19 1890.5L3576.81 1890.5C3492.69 1890.5 3424.5 1822.3 3424.5 1738.16L3424.5 1388.22ZM3576.81 976.5 3719.98 976.5 3424.5 1286.05 3424.5 1128.84C3424.5 1044.7 3492.69 976.5 3576.81 976.5Z" stroke="#53AB80" stroke-width="6.875" stroke-miterlimit="8" fill="#53AB80" fill-rule="evenodd"/><text fill="#FFFFFF" font-family="Yu Gothic,Yu Gothic_MSFontService,sans-serif" font-weight="700" font-size="128" transform="matrix(1 0 0 1 3634.07 1859)">料金案内</text><g><g><g><path d="M3807.54 1367.35C3797.79 1358 3799.34 1340.56 3811.03 1328.33 3822.73 1316.11 3840.09 1313.82 3849.84 1323.16 3859.59 1332.5 3858.04 1349.95 3846.34 1362.18 3834.65 1374.4 3817.3 1376.71 3807.54 1367.35Z" fill="#FFFFFF"/><path d="M3780.84 1284.75C3785.08 1288.81 3785.23 1295.55 3781.17 1299.79 3777.1 1304.04 3770.37 1304.18 3766.12 1300.12 3761.88 1296.06 3761.73 1289.32 3765.8 1285.08 3769.86 1280.83 3776.59 1280.69 3780.84 1284.75Z" fill="#FFFFFF"/><path d="M4041.9 1491.37C4041.95 1480.9 4033.5 1472.37 4023.02 1472.32 4019.48 1472.3 4016 1473.28 4012.99 1475.13L3931.52 1521.72C3932.62 1527.02 3932.58 1532.49 3931.42 1537.78 3927.14 1555.47 3911.19 1567.86 3892.99 1567.6L3808.45 1567.6 3808.45 1548.54 3894.2 1548.54C3904.73 1548.73 3913.41 1540.35 3913.59 1529.82 3913.78 1519.3 3905.39 1510.62 3894.87 1510.43 3894.65 1510.43 3894.43 1510.43 3894.2 1510.43L3779.86 1510.43C3771.92 1510.43 3764.13 1512.65 3757.38 1516.84L3622.65 1581.89 3689.35 1648.59C3720.16 1617.77 3760.21 1605.71 3803.69 1605.71L3892.73 1605.71C3896.79 1605.71 3900.74 1604.41 3904 1602.01L4034.86 1506.05C4039.29 1502.47 4041.88 1497.08 4041.9 1491.37Z" fill="#FFFFFF"/><path d="M3774.04 1200.27 3902.46 1323.21 3881.65 1335.54 3783.88 1241.93 3765.74 1242.63 3723.38 1286.87 3723.31 1304.87 3873.65 1448.79 3891.59 1447.98 3933.94 1403.73 3934.15 1385.79 3934.06 1385.71 3954.87 1373.39 3975.93 1393.56 3883.32 1490.3 3681.43 1297.01 3774.04 1200.27Z" fill="#FFFFFF"/><path d="M3872.38 1357.94 3943.03 1316.11C3943.95 1311.37 3940.85 1306.79 3936.11 1305.87 3935.23 1305.7 3934.33 1305.67 3933.44 1305.78L3912.84 1308.2 3847.81 1245.74 3914.77 1221.93C3920.47 1219.9 3926.67 1219.7 3932.49 1221.35L3997.16 1242.96C4036.85 1253.14 4076.4 1251.66 4112.62 1231.6L4158.35 1314.13 4027.08 1336.7 4027.02 1336.7 4010.88 1339.48 4010.88 1339.43 3972.85 1345.83 3893.14 1393C3883.45 1398.73 3870.95 1395.52 3865.22 1385.83 3859.49 1376.14 3862.7 1363.64 3872.38 1357.91Z" fill="#FFFFFF"/></g></g></g></g></svg>