<svg width="584" height="584" xmlns="http://www.w3.org/2000/svg" xmlns:xlink="http://www.w3.org/1999/xlink" xml:space="preserve" overflow="hidden"><g transform="translate(-348 -68)"><path d="M624.792 189.667C530.5 189.667 454.458 265.708 454.458 360 454.458 389.808 462.367 417.792 475.75 442.125 488.525 428.742 502.517 415.358 517.725 400.758 556.05 364.867 601.067 328.367 638.783 301.6 641.217 299.775 643.65 298.558 646.692 298.558 653.383 298.558 658.858 304.033 658.858 310.725 658.858 314.983 657.033 318.025 653.992 320.458L653.992 320.458C599.85 359.392 528.067 419.617 479.4 474.367 479.4 474.367 472.708 481.667 469.667 485.317L469.667 485.317C442.292 517.558 424.042 546.758 424.042 567.442L460.542 567.442C460.542 554.058 481.833 524.858 514.075 490.183 543.883 515.733 582.208 530.942 624.792 530.942 655.208 530.942 684.408 523.033 709.35 508.433L709.35 508.433C839.533 436.042 855.958 302.817 855.958 153.167 855.958 153.167 714.217 192.1 624.792 189.667Z" fill="#53AB80"/></g></svg>