<svg width="4791" height="1933" xmlns="http://www.w3.org/2000/svg" xmlns:xlink="http://www.w3.org/1999/xlink" xml:space="preserve" overflow="hidden"><g transform="translate(3 -505)"><path d="M0.499836 1227C0.499836 832.393 320.392 512.5 715 512.5 1109.61 512.5 1429.5 832.393 1429.5 1227 1429.5 1621.61 1109.61 1941.5 715 1941.5 320.392 1941.5 0.499836 1621.61 0.499836 1227Z" stroke="#FFFFFF" stroke-width="6.875" stroke-miterlimit="8" fill="#53AB80" fill-rule="evenodd"/><path d="M673.846 1766.66C695.999 1766.66 713.956 1784.64 713.956 1806.83 713.956 1829.01 695.999 1847 673.846 1847 651.694 1847 633.737 1829.01 633.737 1806.83 633.737 1784.64 651.694 1766.66 673.846 1766.66ZM647.537 1646.93C677.073 1646.93 701.017 1670.91 701.017 1700.49 701.017 1730.07 677.073 1754.05 647.537 1754.05 618.001 1754.05 594.057 1730.07 594.057 1700.49 594.057 1670.91 618.001 1646.93 647.537 1646.93ZM631.85 1500.42C668.77 1500.42 698.7 1530.4 698.7 1567.38 698.7 1604.35 668.77 1634.33 631.85 1634.33 594.93 1634.33 565 1604.35 565 1567.38 565 1530.4 594.93 1500.42 631.85 1500.42ZM664.933 1328.16C709.237 1328.16 745.153 1364.13 745.153 1408.51 745.153 1452.88 709.237 1488.85 664.933 1488.85 620.629 1488.85 584.713 1452.88 584.713 1408.51 584.713 1364.13 620.629 1328.16 664.933 1328.16ZM713.136 1133.57C764.824 1133.57 806.725 1175.54 806.725 1227.31 806.725 1279.07 764.824 1321.04 713.136 1321.04 661.447 1321.04 619.546 1279.07 619.546 1227.31 619.546 1175.54 661.447 1133.57 713.136 1133.57ZM773.46 967.974C817.764 967.974 853.68 1003.95 853.68 1048.32 853.68 1092.69 817.764 1128.66 773.46 1128.66 729.156 1128.66 693.24 1092.69 693.24 1048.32 693.24 1003.95 729.156 967.974 773.46 967.974ZM798.15 821.591C835.07 821.591 865 851.567 865 888.544 865 925.521 835.07 955.497 798.15 955.497 761.23 955.497 731.3 925.521 731.3 888.544 731.3 851.567 761.23 821.591 798.15 821.591ZM784.78 696.726C814.316 696.726 838.26 720.707 838.26 750.288 838.26 779.87 814.316 803.851 784.78 803.851 755.244 803.851 731.3 779.87 731.3 750.288 731.3 720.707 755.244 696.726 784.78 696.726ZM745.658 607C767.81 607 785.768 624.985 785.768 647.172 785.768 669.358 767.81 687.343 745.658 687.343 723.506 687.343 705.548 669.358 705.548 647.172 705.548 624.985 723.506 607 745.658 607Z" stroke="#FFFFFF" stroke-width="13.75" stroke-miterlimit="8" fill="#D8C700" fill-rule="evenodd"/><path d="M1082.59 710.603C1055.1 700.293 1025.11 711.882 1015.92 736.356 1012.59 745.256 1012.16 753.98 1014.66 762.53L1065.73 998.688C1080.31 1001.62 1094.05 1006.77 1108.21 1014.62 1151.09 1040.86 1168.97 1091.98 1153.11 1134.26L1079.25 1331.16 1029.28 1312.42 1104.39 1112.17C1113.57 1087.7 1098.6 1059.24 1071.11 1048.93 1043.63 1038.62 1013.63 1050.21 1004.45 1074.68 1004.45 1074.68 905.128 1339.45 904.293 1341.67 897.199 1360.58 896.769 1380.73 900.921 1400.05L952.731 1778.61 1186.06 1688.48C1131.98 1585.71 1135.8 1480.54 1173.77 1379.31L1251.81 1171.28C1255.57 1161.27 1255.16 1150.96 1251.83 1140.83L1115.06 741.818C1108.82 728.057 1097.58 716.227 1082.59 710.603Z" stroke="#FFFFFF" stroke-width="26.4974" stroke-miterlimit="8" fill="#FFFFFF" fill-rule="evenodd"/><text fill="#53AB80" font-family="HGMaruGothicMPRO,HGMaruGothicMPRO_MSFontService,sans-serif" font-weight="400" font-size="248" transform="matrix(1 0 0 1 1999.72 834)">もみほぐし整体</text><text fill="#53AB80" font-family="HGMaruGothicMPRO,HGMaruGothicMPRO_MSFontService,sans-serif" font-weight="400" font-size="912" transform="matrix(1 0 0 1 1503.69 1736)">緩頬堂</text><g><g><g><path d="M4263.41 1553.75C4210.12 1553.75 4167.16 1596.72 4167.16 1650 4167.16 1666.84 4171.62 1682.66 4179.19 1696.41 4186.41 1688.84 4194.31 1681.28 4202.91 1673.03 4224.56 1652.75 4250 1632.12 4271.31 1617 4272.69 1615.97 4274.06 1615.28 4275.78 1615.28 4279.56 1615.28 4282.66 1618.38 4282.66 1622.16 4282.66 1624.56 4281.62 1626.28 4279.91 1627.66L4279.91 1627.66C4249.31 1649.66 4208.75 1683.69 4181.25 1714.62 4181.25 1714.62 4177.47 1718.75 4175.75 1720.81L4175.75 1720.81C4160.28 1739.03 4149.97 1755.53 4149.97 1767.22L4170.59 1767.22C4170.59 1759.66 4182.62 1743.16 4200.84 1723.56 4217.69 1738 4239.34 1746.59 4263.41 1746.59 4280.59 1746.59 4297.09 1742.12 4311.19 1733.88L4311.19 1733.88C4384.75 1692.97 4394.03 1617.69 4394.03 1533.12 4394.03 1533.12 4313.94 1555.12 4263.41 1553.75Z" fill="#53AB80"/></g></g></g><path d="M392.592 1782.54C420.839 1790.53 449.772 1776.49 456.887 1751.34 459.475 1742.19 459.171 1733.46 455.976 1725.15L385.46 1494.05C370.69 1492.34 356.566 1488.35 341.806 1481.7 296.888 1459.11 274.826 1409.65 287.117 1366.21L344.367 1163.85 395.725 1178.38 337.504 1384.17C330.389 1409.32 347.677 1436.44 375.924 1444.43 404.17 1452.42 433.103 1438.38 440.219 1413.23 440.219 1413.23 517.199 1141.13 517.846 1138.84 523.345 1119.4 522.1 1099.29 516.357 1080.38L433.277 707.433 208.244 816.64C270.676 914.564 275.604 1019.68 246.171 1123.72L185.687 1337.51C182.776 1347.8 184.04 1358.04 188.195 1367.86L357.642 1754.13C365.002 1767.33 377.185 1778.18 392.592 1782.54Z" stroke="#FFFFFF" stroke-width="26.4974" stroke-miterlimit="8" fill="#FFFFFF" fill-rule="evenodd"/></g></svg>