<svg width="941" height="999" xmlns="http://www.w3.org/2000/svg" xmlns:xlink="http://www.w3.org/1999/xlink" xml:space="preserve" overflow="hidden"><g transform="translate(-1209 -973)"><path d="M1605.5 976.5 1994.19 976.5C2078.31 976.5 2146.5 1044.7 2146.5 1128.84L2146.5 1738.16C2146.5 1822.3 2078.31 1890.5 1994.19 1890.5L1364.81 1890.5C1280.69 1890.5 1212.5 1822.3 1212.5 1738.16L1212.5 1388.22ZM1364.81 976.5 1507.98 976.5 1212.5 1286.05 1212.5 1128.84C1212.5 1044.7 1280.69 976.5 1364.81 976.5Z" stroke="#53AB80" stroke-width="6.875" stroke-miterlimit="8" fill="#53AB80" fill-rule="evenodd"/><text fill="#FFFFFF" font-family="Yu Gothic,Yu Gothic_MSFontService,sans-serif" font-weight="700" font-size="128" transform="matrix(1 0 0 1 1422.33 1859)">施術詳細</text><g><g><g><path d="M388.781 125.062C375.187 125.062 364.312 135.937 364.312 148.987 364.312 148.987 364.312 148.987 364.312 148.987L364.312 255.562C364.312 258.825 362.137 261 358.875 261 355.612 261 353.437 258.825 353.437 255.562L353.437 96.2437C353.437 83.1937 344.194 72.3187 331.144 70.6875 316.462 69.0562 304.5 80.475 304.5 95.1562L304.5 255.562C304.5 258.825 302.325 261 299.062 261 295.8 261 293.625 258.825 293.625 255.562L293.625 61.9875 293.625 61.9875C293.081 48.3937 281.662 38.0625 268.612 38.6062 255.562 38.6062 245.231 48.9375 244.687 61.9875L244.687 61.9875 244.687 255.562C244.687 258.825 242.512 261 239.25 261 235.987 261 233.812 258.825 233.812 255.562L233.812 95.1562C233.269 81.5625 221.85 71.2312 208.8 71.775 195.75 72.3187 185.419 82.65 185.419 95.1562L185.419 313.2C185.419 313.744 184.331 313.744 184.331 313.2L162.581 217.5C159.319 202.819 144.637 193.575 129.956 196.837 115.275 200.1 106.031 214.781 109.294 229.462L141.919 376.275C143.55 382.256 147.356 387.694 152.25 391.5L212.062 437.719 212.062 478.5 369.75 478.5 369.75 451.312C369.75 412.706 413.25 409.987 413.25 337.125L413.25 149.531C413.25 135.937 402.375 125.062 388.781 125.062 388.781 125.062 388.781 125.062 388.781 125.062L388.781 125.062Z" fill="#FFFFFF" transform="matrix(1 0 0 1 1391 1161)"/></g></g></g></g></svg>